<?xml version="1.0" encoding="utf-8"?>
<svg xmlns="http://www.w3.org/2000/svg" style="margin: auto; background: rgb(241, 242, 243); display: block; shape-rendering: auto;" width="272" height="250" preserveAspectRatio="xMidYMid">
<style type="text/css">
  text {
    text-anchor: middle; font-size: 36px; opacity: 0;
  }
</style>
<g style="transform-origin: 136px 125px; transform: scale(1.56522);">
<g transform="translate(136,125)">
  <g transform="translate(0,0)"><g class="path" style="transform: scale(1); transform-origin: -67.365px -1.91973px; animation: 1s linear -0.609231s infinite normal forwards running beat-329017a1-16dd-404a-b166-4d43758f5c15;"><path d="M11.64-1.96L11.64 0L2.07 0L2.07-16.10L4.25-16.10L4.25-1.96L11.64-1.96" fill="#220b09" stroke="none" stroke-width="none" transform="translate(-74.22000122070312,6.130272498497586)" style="fill: rgb(34, 11, 9);"></path></g><g class="path" style="transform: scale(1); transform-origin: -56.155px 0.150272px; animation: 1s linear -0.558462s infinite normal forwards running beat-329017a1-16dd-404a-b166-4d43758f5c15;"><path d="M23.28-5.13L14.90-5.13L14.90-5.13Q15.11-3.45 16.08-2.51L16.08-2.51L16.08-2.51Q17.04-1.56 18.63-1.56L18.63-1.56L18.63-1.56Q19.66-1.56 20.49-1.78L20.49-1.78L20.49-1.78Q21.32-2.00 22.08-2.35L22.08-2.35L22.56-0.57L22.56-0.57Q21.73-0.18 20.70 0.05L20.70 0.05L20.70 0.05Q19.66 0.28 18.38 0.28L18.38 0.28L18.38 0.28Q17.09 0.28 16.05-0.15L16.05-0.15L16.05-0.15Q15.02-0.57 14.29-1.37L14.29-1.37L14.29-1.37Q13.57-2.16 13.18-3.32L13.18-3.32L13.18-3.32Q12.79-4.49 12.79-5.98L12.79-5.98L12.79-5.98Q12.79-7.31 13.18-8.46L13.18-8.46L13.18-8.46Q13.57-9.61 14.28-10.45L14.28-10.45L14.28-10.45Q15.00-11.29 15.98-11.76L15.98-11.76L15.98-11.76Q16.97-12.24 18.19-12.24L18.19-12.24L18.19-12.24Q19.48-12.24 20.45-11.80L20.45-11.80L20.45-11.80Q21.41-11.36 22.06-10.60L22.06-10.60L22.06-10.60Q22.70-9.84 23.02-8.83L23.02-8.83L23.02-8.83Q23.34-7.82 23.34-6.69L23.34-6.69L23.34-6.69Q23.34-5.89 23.28-5.13L23.28-5.13zM18.15-10.44L18.15-10.44L18.15-10.44Q16.79-10.44 15.93-9.52L15.93-9.52L15.93-9.52Q15.06-8.60 14.88-6.81L14.88-6.81L21.44-6.81L21.44-6.81Q21.44-8.56 20.56-9.50L20.56-9.50L20.56-9.50Q19.69-10.44 18.15-10.44" fill="#220b09" stroke="none" stroke-width="none" transform="translate(-74.22000122070312,6.130272498497586)" style="fill: rgb(211, 76, 49);"></path></g><g class="path" style="transform: scale(1); transform-origin: -42.605px 0.290272px; animation: 1s linear -0.507692s infinite normal forwards running beat-329017a1-16dd-404a-b166-4d43758f5c15;"><path d="M37.24-1.49L36.80 0.11L36.80 0.11Q35.70 0.11 35.05-0.32L35.05-0.32L35.05-0.32Q34.41-0.76 34.16-1.59L34.16-1.59L34.16-1.59Q33.35-0.76 32.30-0.24L32.30-0.24L32.30-0.24Q31.26 0.28 30.02 0.28L30.02 0.28L30.02 0.28Q29.23 0.28 28.51 0.03L28.51 0.03L28.51 0.03Q27.78-0.21 27.22-0.74L27.22-0.74L27.22-0.74Q26.66-1.26 26.32-2.12L26.32-2.12L26.32-2.12Q25.99-2.97 25.99-4.19L25.99-4.19L25.99-11.96L28.06-11.96L28.06-4.46L28.06-4.46Q28.06-3.06 28.65-2.31L28.65-2.31L28.65-2.31Q29.23-1.56 30.41-1.56L30.41-1.56L30.41-1.56Q31.37-1.56 32.25-1.94L32.25-1.94L32.25-1.94Q33.12-2.32 33.81-2.97L33.81-2.97L33.81-11.96L35.88-11.96L35.88-3.10L35.88-3.10Q35.88-2.60 36.00-2.29L36.00-2.29L36.00-2.29Q36.11-1.98 36.29-1.81L36.29-1.81L36.29-1.81Q36.48-1.63 36.73-1.56L36.73-1.56L36.73-1.56Q36.98-1.49 37.24-1.49L37.24-1.49" fill="#220b09" stroke="none" stroke-width="none" transform="translate(-74.22000122070312,6.130272498497586)" style="fill: rgb(232, 132, 50);"></path></g><g class="path" style="transform: scale(1); transform-origin: -29.38px -2.26473px; animation: 1s linear -0.456923s infinite normal forwards running beat-329017a1-16dd-404a-b166-4d43758f5c15;"><path d="M40.00 0L40.00-17.02L42.07-17.02L42.07-7.29L47.47-12.19L48.67-10.88L44.04-6.79L49.68-1.15L48.25 0.23L42.07-6.14L42.07 0L40.00 0" fill="#220b09" stroke="none" stroke-width="none" transform="translate(-74.22000122070312,6.130272498497586)" style="fill: rgb(255, 49, 45);"></path></g><g class="path" style="transform: scale(1); transform-origin: -18.34px 0.150272px; animation: 1s linear -0.406154s infinite normal forwards running beat-329017a1-16dd-404a-b166-4d43758f5c15;"><path d="M61.09-5.13L52.72-5.13L52.72-5.13Q52.92-3.45 53.89-2.51L53.89-2.51L53.89-2.51Q54.85-1.56 56.44-1.56L56.44-1.56L56.44-1.56Q57.48-1.56 58.30-1.78L58.30-1.78L58.30-1.78Q59.13-2.00 59.89-2.35L59.89-2.35L60.38-0.57L60.38-0.57Q59.55-0.18 58.51 0.05L58.51 0.05L58.51 0.05Q57.48 0.28 56.19 0.28L56.19 0.28L56.19 0.28Q54.90 0.28 53.87-0.15L53.87-0.15L53.87-0.15Q52.83-0.57 52.11-1.37L52.11-1.37L52.11-1.37Q51.38-2.16 50.99-3.32L50.99-3.32L50.99-3.32Q50.60-4.49 50.60-5.98L50.60-5.98L50.60-5.98Q50.60-7.31 50.99-8.46L50.99-8.46L50.99-8.46Q51.38-9.61 52.09-10.45L52.09-10.45L52.09-10.45Q52.81-11.29 53.80-11.76L53.80-11.76L53.80-11.76Q54.79-12.24 56.00-12.24L56.00-12.24L56.00-12.24Q57.29-12.24 58.26-11.80L58.26-11.80L58.26-11.80Q59.22-11.36 59.87-10.60L59.87-10.60L59.87-10.60Q60.51-9.84 60.83-8.83L60.83-8.83L60.83-8.83Q61.16-7.82 61.16-6.69L61.16-6.69L61.16-6.69Q61.16-5.89 61.09-5.13L61.09-5.13zM55.96-10.44L55.96-10.44L55.96-10.44Q54.60-10.44 53.74-9.52L53.74-9.52L53.74-9.52Q52.88-8.60 52.69-6.81L52.69-6.81L59.25-6.81L59.25-6.81Q59.25-8.56 58.37-9.50L58.37-9.50L58.37-9.50Q57.50-10.44 55.96-10.44" fill="#220b09" stroke="none" stroke-width="none" transform="translate(-74.22000122070312,6.130272498497586)" style="fill: rgb(245, 192, 55);"></path></g><g class="path" style="transform: scale(1); transform-origin: 4.165px 0.0952725px; animation: 1s linear -0.355385s infinite normal forwards running beat-329017a1-16dd-404a-b166-4d43758f5c15;"><path d="M82.32-2.35L85.38-12.07L87.22-11.41L83.42 0L81.14 0L78.38-8.90L75.60 0L73.32 0L69.55-11.41L71.46-12.07L74.54-2.35L77.35-11.11L79.58-11.11L82.32-2.35" fill="#220b09" stroke="none" stroke-width="none" transform="translate(-74.22000122070312,6.130272498497586)" style="fill: rgb(232, 151, 136);"></path></g><g class="path" style="transform: scale(1); transform-origin: 19.655px 0.150272px; animation: 1s linear -0.304615s infinite normal forwards running beat-329017a1-16dd-404a-b166-4d43758f5c15;"><path d="M99.08-5.13L90.71-5.13L90.71-5.13Q90.92-3.45 91.88-2.51L91.88-2.51L91.88-2.51Q92.85-1.56 94.44-1.56L94.44-1.56L94.44-1.56Q95.47-1.56 96.30-1.78L96.30-1.78L96.30-1.78Q97.13-2.00 97.89-2.35L97.89-2.35L98.37-0.57L98.37-0.57Q97.54-0.18 96.51 0.05L96.51 0.05L96.51 0.05Q95.47 0.28 94.18 0.28L94.18 0.28L94.18 0.28Q92.90 0.28 91.86-0.15L91.86-0.15L91.86-0.15Q90.83-0.57 90.10-1.37L90.10-1.37L90.10-1.37Q89.38-2.16 88.99-3.32L88.99-3.32L88.99-3.32Q88.60-4.49 88.60-5.98L88.60-5.98L88.60-5.98Q88.60-7.31 88.99-8.46L88.99-8.46L88.99-8.46Q89.38-9.61 90.09-10.45L90.09-10.45L90.09-10.45Q90.80-11.29 91.79-11.76L91.79-11.76L91.79-11.76Q92.78-12.24 94.00-12.24L94.00-12.24L94.00-12.24Q95.29-12.24 96.25-11.80L96.25-11.80L96.25-11.80Q97.22-11.36 97.86-10.60L97.86-10.60L97.86-10.60Q98.51-9.84 98.83-8.83L98.83-8.83L98.83-8.83Q99.15-7.82 99.15-6.69L99.15-6.69L99.15-6.69Q99.15-5.89 99.08-5.13L99.08-5.13zM93.95-10.44L93.95-10.44L93.95-10.44Q92.60-10.44 91.74-9.52L91.74-9.52L91.74-9.52Q90.87-8.60 90.69-6.81L90.69-6.81L97.24-6.81L97.24-6.81Q97.24-8.56 96.37-9.50L96.37-9.50L96.37-9.50Q95.50-10.44 93.95-10.44" fill="#220b09" stroke="none" stroke-width="none" transform="translate(-74.22000122070312,6.130272498497586)" style="fill: rgb(253, 50, 98);"></path></g><g class="path" style="transform: scale(1); transform-origin: 33.085px -2.23973px; animation: 1s linear -0.253846s infinite normal forwards running beat-329017a1-16dd-404a-b166-4d43758f5c15;"><path d="M101.91 0L101.91-17.02L103.98-17.02L103.98-10.72L103.98-10.72Q104.21-10.97 104.56-11.25L104.56-11.25L104.56-11.25Q104.90-11.52 105.33-11.74L105.33-11.74L105.33-11.74Q105.75-11.96 106.28-12.10L106.28-12.10L106.28-12.10Q106.81-12.24 107.43-12.24L107.43-12.24L107.43-12.24Q108.47-12.24 109.42-11.82L109.42-11.82L109.42-11.82Q110.38-11.41 111.10-10.63L111.10-10.63L111.10-10.63Q111.83-9.84 112.26-8.69L112.26-8.69L112.26-8.69Q112.70-7.54 112.70-6.09L112.70-6.09L112.70-6.09Q112.70-4.67 112.24-3.50L112.24-3.50L112.24-3.50Q111.78-2.32 111.02-1.48L111.02-1.48L111.02-1.48Q110.26-0.64 109.28-0.18L109.28-0.18L109.28-0.18Q108.31 0.28 107.29 0.28L107.29 0.28L107.29 0.28Q106.26 0.28 105.35-0.09L105.35-0.09L105.35-0.09Q104.44-0.46 103.84-0.99L103.84-0.99L103.84 0L101.91 0zM110.58-6.03L110.58-6.03L110.58-6.03Q110.58-7.06 110.30-7.88L110.30-7.88L110.30-7.88Q110.01-8.69 109.51-9.27L109.51-9.27L109.51-9.27Q109.02-9.84 108.36-10.14L108.36-10.14L108.36-10.14Q107.71-10.44 106.97-10.44L106.97-10.44L106.97-10.44Q105.98-10.44 105.19-9.95L105.19-9.95L105.19-9.95Q104.40-9.45 103.98-8.88L103.98-8.88L103.98-2.48L103.98-2.48Q104.51-2.07 105.22-1.82L105.22-1.82L105.22-1.82Q105.94-1.56 106.74-1.56L106.74-1.56L106.74-1.56Q107.57-1.56 108.28-1.89L108.28-1.89L108.28-1.89Q109.00-2.21 109.50-2.79L109.50-2.79L109.50-2.79Q110.01-3.38 110.30-4.20L110.30-4.20L110.30-4.20Q110.58-5.01 110.58-6.03" fill="#220b09" stroke="none" stroke-width="none" transform="translate(-74.22000122070312,6.130272498497586)" style="fill: rgb(240, 195, 169);"></path></g><g class="path" style="transform: scale(1); transform-origin: 44.84px 0.150272px; animation: 1s linear -0.203077s infinite normal forwards running beat-329017a1-16dd-404a-b166-4d43758f5c15;"><path d="M114.54-0.97L115.41-2.69L115.41-2.69Q116.01-2.16 116.92-1.84L116.92-1.84L116.92-1.84Q117.83-1.52 118.86-1.52L118.86-1.52L118.86-1.52Q120.15-1.52 120.81-1.94L120.81-1.94L120.81-1.94Q121.46-2.37 121.46-3.04L121.46-3.04L121.46-3.04Q121.46-3.38 121.34-3.68L121.34-3.68L121.34-3.68Q121.21-3.98 120.88-4.25L120.88-4.25L120.88-4.25Q120.54-4.53 119.97-4.80L119.97-4.80L119.97-4.80Q119.39-5.06 118.47-5.38L118.47-5.38L118.47-5.38Q116.77-5.96 115.94-6.75L115.94-6.75L115.94-6.75Q115.11-7.54 115.11-8.95L115.11-8.95L115.11-8.95Q115.11-9.64 115.43-10.23L115.43-10.23L115.43-10.23Q115.74-10.83 116.32-11.28L116.32-11.28L116.32-11.28Q116.91-11.73 117.75-11.98L117.75-11.98L117.75-11.98Q118.59-12.24 119.67-12.24L119.67-12.24L119.67-12.24Q120.84-12.24 121.73-11.99L121.73-11.99L121.73-11.99Q122.61-11.75 123.33-11.38L123.33-11.38L122.75-9.68L122.75-9.68Q122.13-10.05 121.34-10.28L121.34-10.28L121.34-10.28Q120.54-10.51 119.58-10.51L119.58-10.51L119.58-10.51Q118.38-10.51 117.76-10.03L117.76-10.03L117.76-10.03Q117.14-9.54 117.14-8.97L117.14-8.97L117.14-8.97Q117.14-8.69 117.24-8.46L117.24-8.46L117.24-8.46Q117.35-8.23 117.62-8.03L117.62-8.03L117.62-8.03Q117.90-7.82 118.36-7.61L118.36-7.61L118.36-7.61Q118.82-7.41 119.51-7.18L119.51-7.18L119.51-7.18Q120.63-6.79 121.42-6.38L121.42-6.38L121.42-6.38Q122.20-5.98 122.68-5.50L122.68-5.50L122.68-5.50Q123.16-5.01 123.37-4.45L123.37-4.45L123.37-4.45Q123.58-3.89 123.58-3.20L123.58-3.20L123.58-3.20Q123.58-2.39 123.23-1.75L123.23-1.75L123.23-1.75Q122.89-1.10 122.27-0.66L122.27-0.66L122.27-0.66Q121.65-0.21 120.76 0.03L120.76 0.03L120.76 0.03Q119.88 0.28 118.79 0.28L118.79 0.28L118.79 0.28Q117.41 0.28 116.33-0.07L116.33-0.07L116.33-0.07Q115.25-0.41 114.54-0.97L114.54-0.97" fill="#220b09" stroke="none" stroke-width="none" transform="translate(-74.22000122070312,6.130272498497586)" style="fill: rgb(157, 154, 202);"></path></g><g class="path" style="transform: scale(1); transform-origin: 53.155px 0.150272px; animation: 1s linear -0.152308s infinite normal forwards running beat-329017a1-16dd-404a-b166-4d43758f5c15;"><path d="M128.41-11.96L128.41 0L126.34 0L126.34-11.96L128.41-11.96" fill="#220b09" stroke="none" stroke-width="none" transform="translate(-74.22000122070312,6.130272498497586)" style="fill: rgb(100, 84, 129);"></path></g><g class="path" style="transform: scale(1); transform-origin: 53.15px -9.32973px; animation: 1s linear -0.101538s infinite normal forwards running beat-329017a1-16dd-404a-b166-4d43758f5c15;"><path d="M127.37-14.01L127.37-14.01L127.37-14.01Q126.78-14.01 126.35-14.43L126.35-14.43L126.35-14.43Q125.92-14.86 125.92-15.46L125.92-15.46L125.92-15.46Q125.92-16.12 126.32-16.51L126.32-16.51L126.32-16.51Q126.71-16.91 127.37-16.91L127.37-16.91L127.37-16.91Q127.97-16.91 128.40-16.48L128.40-16.48L128.40-16.48Q128.82-16.05 128.82-15.46L128.82-15.46L128.82-15.46Q128.82-14.79 128.43-14.40L128.43-14.40L128.43-14.40Q128.04-14.01 127.37-14.01" fill="#220b09" stroke="none" stroke-width="none" transform="translate(-74.22000122070312,6.130272498497586)" style="fill: rgb(34, 11, 9);"></path></g><g class="path" style="transform: scale(1); transform-origin: 60.595px -1.37473px; animation: 1s linear -0.0507692s infinite normal forwards running beat-329017a1-16dd-404a-b166-4d43758f5c15;"><path d="M132.59-11.52L133.03-15.29L134.62-15.29L134.62-11.52L137.93-11.52L137.93-9.73L134.62-9.73L134.62-3.96L134.62-3.96Q134.62-3.29 134.77-2.83L134.77-2.83L134.77-2.83Q134.92-2.37 135.17-2.09L135.17-2.09L135.17-2.09Q135.42-1.82 135.78-1.69L135.78-1.69L135.78-1.69Q136.14-1.56 136.53-1.56L136.53-1.56L136.53-1.56Q137.10-1.56 137.61-1.75L137.61-1.75L137.61-1.75Q138.11-1.93 138.57-2.19L138.57-2.19L139.15-0.53L139.15-0.53Q138.69-0.25 137.91 0.01L137.91 0.01L137.91 0.01Q137.13 0.28 136.27 0.28L136.27 0.28L136.27 0.28Q134.55 0.28 133.55-0.85L133.55-0.85L133.55-0.85Q132.55-1.98 132.55-4.12L132.55-4.12L132.55-9.73L130.48-9.73L130.48-11.52L132.59-11.52" fill="#220b09" stroke="none" stroke-width="none" transform="translate(-74.22000122070312,6.130272498497586)" style="fill: rgb(211, 76, 49);"></path></g><g class="path" style="transform: scale(1); transform-origin: 71.01px 0.150272px; animation: 1s linear 0s infinite normal forwards running beat-329017a1-16dd-404a-b166-4d43758f5c15;"><path d="M150.44-5.13L142.07-5.13L142.07-5.13Q142.28-3.45 143.24-2.51L143.24-2.51L143.24-2.51Q144.21-1.56 145.80-1.56L145.80-1.56L145.80-1.56Q146.83-1.56 147.66-1.78L147.66-1.78L147.66-1.78Q148.49-2.00 149.25-2.35L149.25-2.35L149.73-0.57L149.73-0.57Q148.90-0.18 147.87 0.05L147.87 0.05L147.87 0.05Q146.83 0.28 145.54 0.28L145.54 0.28L145.54 0.28Q144.26 0.28 143.22-0.15L143.22-0.15L143.22-0.15Q142.19-0.57 141.46-1.37L141.46-1.37L141.46-1.37Q140.74-2.16 140.35-3.32L140.35-3.32L140.35-3.32Q139.95-4.49 139.95-5.98L139.95-5.98L139.95-5.98Q139.95-7.31 140.35-8.46L140.35-8.46L140.35-8.46Q140.74-9.61 141.45-10.45L141.45-10.45L141.45-10.45Q142.16-11.29 143.15-11.76L143.15-11.76L143.15-11.76Q144.14-12.24 145.36-12.24L145.36-12.24L145.36-12.24Q146.65-12.24 147.61-11.80L147.61-11.80L147.61-11.80Q148.58-11.36 149.22-10.60L149.22-10.60L149.22-10.60Q149.87-9.84 150.19-8.83L150.19-8.83L150.19-8.83Q150.51-7.82 150.51-6.69L150.51-6.69L150.51-6.69Q150.51-5.89 150.44-5.13L150.44-5.13zM145.31-10.44L145.31-10.44L145.31-10.44Q143.96-10.44 143.09-9.52L143.09-9.52L143.09-9.52Q142.23-8.60 142.05-6.81L142.05-6.81L148.60-6.81L148.60-6.81Q148.60-8.56 147.73-9.50L147.73-9.50L147.73-9.50Q146.85-10.44 145.31-10.44" fill="#220b09" stroke="none" stroke-width="none" transform="translate(-74.22000122070312,6.130272498497586)" style="fill: rgb(232, 132, 50);"></path></g></g>
</g>
</g>
<style id="beat-329017a1-16dd-404a-b166-4d43758f5c15" data-anikit="">@keyframes beat-329017a1-16dd-404a-b166-4d43758f5c15
{
  0% {
    animation-timing-function: cubic-bezier(0.1028,0.2484,0.1372,0.849);
    transform: scale(1);
  }
  34% {
    animation-timing-function: cubic-bezier(0.7116,0.2095,0.8159,0.6876);
    transform: scale(1.2);
  }
  68% {
    animation-timing-function: cubic-bezier(0.1475,0.2888,0.294,0.883);
    transform: scale(1.0268);
  }
  84% {
    animation-timing-function: cubic-bezier(0.8176,0.2193,0.867,0.6889);
    transform: scale(1.0932);
  }
  100% {
    transform: scale(1);
  }
}</style></svg>